<mxfile host="app.diagrams.net" modified="2024-07-20T17:18:22.399Z" agent="Mozilla/5.0 (Windows NT 10.0; Win64; x64) AppleWebKit/537.36 (KHTML, like Gecko) Chrome/121.0.0.0 Safari/537.36" etag="pzBt-teR4HCKcxUh0JJ4" version="24.7.2" type="device">
  <diagram id="C5RBs43oDa-KdzZeNtuy" name="Page-1">
    <mxGraphModel dx="1259" dy="695" grid="1" gridSize="10" guides="1" tooltips="1" connect="1" arrows="1" fold="1" page="1" pageScale="1" pageWidth="827" pageHeight="1169" math="0" shadow="0">
      <root>
        <mxCell id="WIyWlLk6GJQsqaUBKTNV-0" />
        <mxCell id="WIyWlLk6GJQsqaUBKTNV-1" parent="WIyWlLk6GJQsqaUBKTNV-0" />
        <mxCell id="JbuIx9JMpjGhko4kKoYl-23" style="edgeStyle=orthogonalEdgeStyle;rounded=0;orthogonalLoop=1;jettySize=auto;html=1;exitX=0.5;exitY=1;exitDx=0;exitDy=0;entryX=0.5;entryY=0;entryDx=0;entryDy=0;" edge="1" parent="WIyWlLk6GJQsqaUBKTNV-1" source="JbuIx9JMpjGhko4kKoYl-0" target="JbuIx9JMpjGhko4kKoYl-22">
          <mxGeometry relative="1" as="geometry" />
        </mxCell>
        <mxCell id="JbuIx9JMpjGhko4kKoYl-0" value="ínicio" style="ellipse;whiteSpace=wrap;html=1;" vertex="1" parent="WIyWlLk6GJQsqaUBKTNV-1">
          <mxGeometry x="304" y="10" width="120" height="60" as="geometry" />
        </mxCell>
        <mxCell id="JbuIx9JMpjGhko4kKoYl-21" style="edgeStyle=orthogonalEdgeStyle;rounded=0;orthogonalLoop=1;jettySize=auto;html=1;entryX=0.5;entryY=0;entryDx=0;entryDy=0;" edge="1" parent="WIyWlLk6GJQsqaUBKTNV-1" source="JbuIx9JMpjGhko4kKoYl-2" target="JbuIx9JMpjGhko4kKoYl-4">
          <mxGeometry relative="1" as="geometry" />
        </mxCell>
        <mxCell id="JbuIx9JMpjGhko4kKoYl-55" value="" style="edgeStyle=orthogonalEdgeStyle;rounded=0;orthogonalLoop=1;jettySize=auto;html=1;" edge="1" parent="WIyWlLk6GJQsqaUBKTNV-1" source="JbuIx9JMpjGhko4kKoYl-2" target="JbuIx9JMpjGhko4kKoYl-38">
          <mxGeometry relative="1" as="geometry" />
        </mxCell>
        <mxCell id="JbuIx9JMpjGhko4kKoYl-2" value="clientes" style="rounded=0;whiteSpace=wrap;html=1;" vertex="1" parent="WIyWlLk6GJQsqaUBKTNV-1">
          <mxGeometry x="304" y="170" width="120" height="50" as="geometry" />
        </mxCell>
        <mxCell id="JbuIx9JMpjGhko4kKoYl-5" style="edgeStyle=orthogonalEdgeStyle;rounded=0;orthogonalLoop=1;jettySize=auto;html=1;entryX=0.5;entryY=0;entryDx=0;entryDy=0;" edge="1" parent="WIyWlLk6GJQsqaUBKTNV-1" source="JbuIx9JMpjGhko4kKoYl-4" target="JbuIx9JMpjGhko4kKoYl-6">
          <mxGeometry relative="1" as="geometry">
            <mxPoint x="210" y="290" as="targetPoint" />
          </mxGeometry>
        </mxCell>
        <mxCell id="JbuIx9JMpjGhko4kKoYl-29" style="edgeStyle=orthogonalEdgeStyle;rounded=0;orthogonalLoop=1;jettySize=auto;html=1;entryX=0;entryY=0.5;entryDx=0;entryDy=0;" edge="1" parent="WIyWlLk6GJQsqaUBKTNV-1" target="JbuIx9JMpjGhko4kKoYl-6">
          <mxGeometry relative="1" as="geometry">
            <mxPoint x="304.5" y="270" as="sourcePoint" />
            <mxPoint x="160.5" y="345" as="targetPoint" />
          </mxGeometry>
        </mxCell>
        <mxCell id="JbuIx9JMpjGhko4kKoYl-4" value="lista de clientes&amp;nbsp;" style="rounded=0;whiteSpace=wrap;html=1;" vertex="1" parent="WIyWlLk6GJQsqaUBKTNV-1">
          <mxGeometry x="304" y="270" width="120" height="60" as="geometry" />
        </mxCell>
        <mxCell id="JbuIx9JMpjGhko4kKoYl-9" style="edgeStyle=orthogonalEdgeStyle;rounded=0;orthogonalLoop=1;jettySize=auto;html=1;entryX=0;entryY=0.5;entryDx=0;entryDy=0;" edge="1" parent="WIyWlLk6GJQsqaUBKTNV-1" source="JbuIx9JMpjGhko4kKoYl-6" target="JbuIx9JMpjGhko4kKoYl-10">
          <mxGeometry relative="1" as="geometry">
            <mxPoint x="300" y="335" as="targetPoint" />
          </mxGeometry>
        </mxCell>
        <mxCell id="JbuIx9JMpjGhko4kKoYl-6" value="cliente fez cadastro?" style="rhombus;whiteSpace=wrap;html=1;" vertex="1" parent="WIyWlLk6GJQsqaUBKTNV-1">
          <mxGeometry x="160" y="330" width="100" height="90" as="geometry" />
        </mxCell>
        <mxCell id="JbuIx9JMpjGhko4kKoYl-7" value="não" style="text;html=1;align=center;verticalAlign=middle;resizable=0;points=[];autosize=1;strokeColor=none;fillColor=none;" vertex="1" parent="WIyWlLk6GJQsqaUBKTNV-1">
          <mxGeometry x="250" y="350" width="40" height="30" as="geometry" />
        </mxCell>
        <mxCell id="JbuIx9JMpjGhko4kKoYl-31" style="edgeStyle=orthogonalEdgeStyle;rounded=0;orthogonalLoop=1;jettySize=auto;html=1;exitX=0.5;exitY=1;exitDx=0;exitDy=0;" edge="1" parent="WIyWlLk6GJQsqaUBKTNV-1" source="JbuIx9JMpjGhko4kKoYl-10">
          <mxGeometry relative="1" as="geometry">
            <mxPoint x="359" y="460" as="targetPoint" />
          </mxGeometry>
        </mxCell>
        <mxCell id="JbuIx9JMpjGhko4kKoYl-10" value="cadastrar cliente&amp;nbsp;" style="rounded=0;whiteSpace=wrap;html=1;" vertex="1" parent="WIyWlLk6GJQsqaUBKTNV-1">
          <mxGeometry x="304" y="370" width="110" height="50" as="geometry" />
        </mxCell>
        <mxCell id="JbuIx9JMpjGhko4kKoYl-24" style="edgeStyle=orthogonalEdgeStyle;rounded=0;orthogonalLoop=1;jettySize=auto;html=1;exitX=0.5;exitY=1;exitDx=0;exitDy=0;entryX=0.5;entryY=0;entryDx=0;entryDy=0;" edge="1" parent="WIyWlLk6GJQsqaUBKTNV-1" source="JbuIx9JMpjGhko4kKoYl-22" target="JbuIx9JMpjGhko4kKoYl-2">
          <mxGeometry relative="1" as="geometry" />
        </mxCell>
        <mxCell id="JbuIx9JMpjGhko4kKoYl-22" value="tela ínicial" style="rounded=0;whiteSpace=wrap;html=1;" vertex="1" parent="WIyWlLk6GJQsqaUBKTNV-1">
          <mxGeometry x="304.5" y="90" width="119" height="50" as="geometry" />
        </mxCell>
        <mxCell id="JbuIx9JMpjGhko4kKoYl-30" value="sim" style="text;html=1;align=center;verticalAlign=middle;resizable=0;points=[];autosize=1;strokeColor=none;fillColor=none;" vertex="1" parent="WIyWlLk6GJQsqaUBKTNV-1">
          <mxGeometry x="133" y="340" width="40" height="30" as="geometry" />
        </mxCell>
        <mxCell id="JbuIx9JMpjGhko4kKoYl-33" style="edgeStyle=orthogonalEdgeStyle;rounded=0;orthogonalLoop=1;jettySize=auto;html=1;" edge="1" parent="WIyWlLk6GJQsqaUBKTNV-1" source="JbuIx9JMpjGhko4kKoYl-32">
          <mxGeometry relative="1" as="geometry">
            <mxPoint x="490" y="450" as="targetPoint" />
          </mxGeometry>
        </mxCell>
        <mxCell id="JbuIx9JMpjGhko4kKoYl-43" style="edgeStyle=orthogonalEdgeStyle;rounded=0;orthogonalLoop=1;jettySize=auto;html=1;" edge="1" parent="WIyWlLk6GJQsqaUBKTNV-1" source="JbuIx9JMpjGhko4kKoYl-32" target="JbuIx9JMpjGhko4kKoYl-44">
          <mxGeometry relative="1" as="geometry">
            <mxPoint x="359" y="570" as="targetPoint" />
          </mxGeometry>
        </mxCell>
        <mxCell id="JbuIx9JMpjGhko4kKoYl-32" value="preencha formulário" style="rounded=0;whiteSpace=wrap;html=1;" vertex="1" parent="WIyWlLk6GJQsqaUBKTNV-1">
          <mxGeometry x="299" y="460" width="120" height="50" as="geometry" />
        </mxCell>
        <mxCell id="JbuIx9JMpjGhko4kKoYl-36" style="edgeStyle=orthogonalEdgeStyle;rounded=0;orthogonalLoop=1;jettySize=auto;html=1;" edge="1" parent="WIyWlLk6GJQsqaUBKTNV-1" source="JbuIx9JMpjGhko4kKoYl-34">
          <mxGeometry relative="1" as="geometry">
            <mxPoint x="600" y="320" as="targetPoint" />
          </mxGeometry>
        </mxCell>
        <mxCell id="JbuIx9JMpjGhko4kKoYl-34" value="&lt;div&gt;&lt;div&gt;&lt;div&gt;&lt;div&gt;&lt;br&gt;&lt;/div&gt;&lt;/div&gt;&lt;/div&gt;&lt;/div&gt;" style="rounded=0;whiteSpace=wrap;html=1;" vertex="1" parent="WIyWlLk6GJQsqaUBKTNV-1">
          <mxGeometry x="440" y="380" width="110" height="70" as="geometry" />
        </mxCell>
        <mxCell id="JbuIx9JMpjGhko4kKoYl-35" value="informações:&lt;div&gt;nome&lt;/div&gt;&lt;div&gt;cpf&amp;nbsp;&amp;nbsp;&lt;/div&gt;&lt;div&gt;telefone&amp;nbsp;&lt;/div&gt;&lt;div&gt;endereço...&lt;/div&gt;&lt;div&gt;&lt;br&gt;&lt;/div&gt;&lt;div&gt;&lt;div&gt;&lt;br&gt;&lt;/div&gt;&lt;div&gt;&lt;br&gt;&lt;/div&gt;&lt;div&gt;&lt;br style=&quot;text-wrap: wrap;&quot;&gt;&lt;/div&gt;&lt;/div&gt;" style="text;html=1;align=center;verticalAlign=middle;resizable=0;points=[];autosize=1;strokeColor=none;fillColor=none;" vertex="1" parent="WIyWlLk6GJQsqaUBKTNV-1">
          <mxGeometry x="450" y="374" width="90" height="140" as="geometry" />
        </mxCell>
        <mxCell id="JbuIx9JMpjGhko4kKoYl-40" style="edgeStyle=orthogonalEdgeStyle;rounded=0;orthogonalLoop=1;jettySize=auto;html=1;entryX=0.909;entryY=1.04;entryDx=0;entryDy=0;entryPerimeter=0;" edge="1" parent="WIyWlLk6GJQsqaUBKTNV-1" source="JbuIx9JMpjGhko4kKoYl-38" target="JbuIx9JMpjGhko4kKoYl-22">
          <mxGeometry relative="1" as="geometry">
            <Array as="points">
              <mxPoint x="479" y="264" />
              <mxPoint x="479" y="110" />
              <mxPoint x="424" y="110" />
              <mxPoint x="424" y="140" />
              <mxPoint x="413" y="140" />
            </Array>
          </mxGeometry>
        </mxCell>
        <mxCell id="JbuIx9JMpjGhko4kKoYl-41" style="edgeStyle=orthogonalEdgeStyle;rounded=0;orthogonalLoop=1;jettySize=auto;html=1;" edge="1" parent="WIyWlLk6GJQsqaUBKTNV-1" source="JbuIx9JMpjGhko4kKoYl-38">
          <mxGeometry relative="1" as="geometry">
            <mxPoint x="340" y="370" as="targetPoint" />
            <Array as="points">
              <mxPoint x="570" y="350" />
              <mxPoint x="341" y="350" />
            </Array>
          </mxGeometry>
        </mxCell>
        <mxCell id="JbuIx9JMpjGhko4kKoYl-38" value="todas as informações&lt;div&gt;foram preenchidas?&lt;/div&gt;" style="rhombus;whiteSpace=wrap;html=1;" vertex="1" parent="WIyWlLk6GJQsqaUBKTNV-1">
          <mxGeometry x="534" y="210" width="136" height="108" as="geometry" />
        </mxCell>
        <mxCell id="JbuIx9JMpjGhko4kKoYl-39" value="sim" style="text;html=1;align=center;verticalAlign=middle;resizable=0;points=[];autosize=1;strokeColor=none;fillColor=none;" vertex="1" parent="WIyWlLk6GJQsqaUBKTNV-1">
          <mxGeometry x="494" y="239" width="40" height="30" as="geometry" />
        </mxCell>
        <mxCell id="JbuIx9JMpjGhko4kKoYl-42" value="não" style="text;html=1;align=center;verticalAlign=middle;resizable=0;points=[];autosize=1;strokeColor=none;fillColor=none;" vertex="1" parent="WIyWlLk6GJQsqaUBKTNV-1">
          <mxGeometry x="500" y="328" width="40" height="30" as="geometry" />
        </mxCell>
        <mxCell id="JbuIx9JMpjGhko4kKoYl-46" style="edgeStyle=orthogonalEdgeStyle;rounded=0;orthogonalLoop=1;jettySize=auto;html=1;" edge="1" parent="WIyWlLk6GJQsqaUBKTNV-1" source="JbuIx9JMpjGhko4kKoYl-44">
          <mxGeometry relative="1" as="geometry">
            <mxPoint x="304" y="140" as="targetPoint" />
            <Array as="points">
              <mxPoint x="260" y="585" />
              <mxPoint x="260" y="460" />
              <mxPoint x="90" y="460" />
              <mxPoint x="90" y="130" />
              <mxPoint x="304" y="130" />
            </Array>
          </mxGeometry>
        </mxCell>
        <mxCell id="JbuIx9JMpjGhko4kKoYl-48" style="edgeStyle=orthogonalEdgeStyle;rounded=0;orthogonalLoop=1;jettySize=auto;html=1;" edge="1" parent="WIyWlLk6GJQsqaUBKTNV-1" source="JbuIx9JMpjGhko4kKoYl-44">
          <mxGeometry relative="1" as="geometry">
            <mxPoint x="420" y="510" as="targetPoint" />
          </mxGeometry>
        </mxCell>
        <mxCell id="JbuIx9JMpjGhko4kKoYl-44" value="salvar cadastro" style="ellipse;whiteSpace=wrap;html=1;" vertex="1" parent="WIyWlLk6GJQsqaUBKTNV-1">
          <mxGeometry x="299" y="550" width="120" height="70" as="geometry" />
        </mxCell>
        <mxCell id="JbuIx9JMpjGhko4kKoYl-47" value="sim" style="text;html=1;align=center;verticalAlign=middle;resizable=0;points=[];autosize=1;strokeColor=none;fillColor=none;" vertex="1" parent="WIyWlLk6GJQsqaUBKTNV-1">
          <mxGeometry x="160" y="437" width="40" height="30" as="geometry" />
        </mxCell>
        <mxCell id="JbuIx9JMpjGhko4kKoYl-49" value="não" style="text;html=1;align=center;verticalAlign=middle;resizable=0;points=[];autosize=1;strokeColor=none;fillColor=none;" vertex="1" parent="WIyWlLk6GJQsqaUBKTNV-1">
          <mxGeometry x="420" y="548" width="40" height="30" as="geometry" />
        </mxCell>
        <mxCell id="JbuIx9JMpjGhko4kKoYl-54" value="" style="edgeStyle=orthogonalEdgeStyle;rounded=0;orthogonalLoop=1;jettySize=auto;html=1;" edge="1" parent="WIyWlLk6GJQsqaUBKTNV-1" source="JbuIx9JMpjGhko4kKoYl-51" target="JbuIx9JMpjGhko4kKoYl-53">
          <mxGeometry relative="1" as="geometry" />
        </mxCell>
        <mxCell id="JbuIx9JMpjGhko4kKoYl-51" value="ínicio" style="ellipse;whiteSpace=wrap;html=1;" vertex="1" parent="WIyWlLk6GJQsqaUBKTNV-1">
          <mxGeometry x="1070" y="5" width="120" height="65" as="geometry" />
        </mxCell>
        <mxCell id="JbuIx9JMpjGhko4kKoYl-57" value="" style="edgeStyle=orthogonalEdgeStyle;rounded=0;orthogonalLoop=1;jettySize=auto;html=1;" edge="1" parent="WIyWlLk6GJQsqaUBKTNV-1" source="JbuIx9JMpjGhko4kKoYl-53" target="JbuIx9JMpjGhko4kKoYl-56">
          <mxGeometry relative="1" as="geometry" />
        </mxCell>
        <mxCell id="JbuIx9JMpjGhko4kKoYl-53" value="tela ínicio" style="whiteSpace=wrap;html=1;" vertex="1" parent="WIyWlLk6GJQsqaUBKTNV-1">
          <mxGeometry x="1070" y="110" width="120" height="60" as="geometry" />
        </mxCell>
        <mxCell id="JbuIx9JMpjGhko4kKoYl-61" value="" style="edgeStyle=orthogonalEdgeStyle;rounded=0;orthogonalLoop=1;jettySize=auto;html=1;" edge="1" parent="WIyWlLk6GJQsqaUBKTNV-1" source="JbuIx9JMpjGhko4kKoYl-56" target="JbuIx9JMpjGhko4kKoYl-60">
          <mxGeometry relative="1" as="geometry" />
        </mxCell>
        <mxCell id="JbuIx9JMpjGhko4kKoYl-80" style="edgeStyle=orthogonalEdgeStyle;rounded=0;orthogonalLoop=1;jettySize=auto;html=1;exitX=1;exitY=0.5;exitDx=0;exitDy=0;" edge="1" parent="WIyWlLk6GJQsqaUBKTNV-1" source="JbuIx9JMpjGhko4kKoYl-56" target="JbuIx9JMpjGhko4kKoYl-81">
          <mxGeometry relative="1" as="geometry">
            <mxPoint x="1280" y="130" as="targetPoint" />
          </mxGeometry>
        </mxCell>
        <mxCell id="JbuIx9JMpjGhko4kKoYl-56" value="pedidos" style="whiteSpace=wrap;html=1;" vertex="1" parent="WIyWlLk6GJQsqaUBKTNV-1">
          <mxGeometry x="1070" y="210" width="120" height="60" as="geometry" />
        </mxCell>
        <mxCell id="JbuIx9JMpjGhko4kKoYl-63" value="" style="edgeStyle=orthogonalEdgeStyle;rounded=0;orthogonalLoop=1;jettySize=auto;html=1;" edge="1" parent="WIyWlLk6GJQsqaUBKTNV-1" source="JbuIx9JMpjGhko4kKoYl-60" target="JbuIx9JMpjGhko4kKoYl-62">
          <mxGeometry relative="1" as="geometry" />
        </mxCell>
        <mxCell id="JbuIx9JMpjGhko4kKoYl-60" value="pesquisar produto" style="whiteSpace=wrap;html=1;" vertex="1" parent="WIyWlLk6GJQsqaUBKTNV-1">
          <mxGeometry x="870" y="210" width="120" height="60" as="geometry" />
        </mxCell>
        <mxCell id="JbuIx9JMpjGhko4kKoYl-64" style="edgeStyle=orthogonalEdgeStyle;rounded=0;orthogonalLoop=1;jettySize=auto;html=1;entryX=0;entryY=0.5;entryDx=0;entryDy=0;" edge="1" parent="WIyWlLk6GJQsqaUBKTNV-1" source="JbuIx9JMpjGhko4kKoYl-62" target="JbuIx9JMpjGhko4kKoYl-53">
          <mxGeometry relative="1" as="geometry">
            <Array as="points">
              <mxPoint x="840" y="365" />
              <mxPoint x="840" y="140" />
            </Array>
          </mxGeometry>
        </mxCell>
        <mxCell id="JbuIx9JMpjGhko4kKoYl-66" style="edgeStyle=orthogonalEdgeStyle;rounded=0;orthogonalLoop=1;jettySize=auto;html=1;" edge="1" parent="WIyWlLk6GJQsqaUBKTNV-1" source="JbuIx9JMpjGhko4kKoYl-62" target="JbuIx9JMpjGhko4kKoYl-67">
          <mxGeometry relative="1" as="geometry">
            <mxPoint x="1070" y="400" as="targetPoint" />
          </mxGeometry>
        </mxCell>
        <mxCell id="JbuIx9JMpjGhko4kKoYl-62" value="produto encontrado?" style="rhombus;whiteSpace=wrap;html=1;" vertex="1" parent="WIyWlLk6GJQsqaUBKTNV-1">
          <mxGeometry x="885" y="325" width="90" height="80" as="geometry" />
        </mxCell>
        <mxCell id="JbuIx9JMpjGhko4kKoYl-65" value="sim" style="text;html=1;align=center;verticalAlign=middle;resizable=0;points=[];autosize=1;strokeColor=none;fillColor=none;" vertex="1" parent="WIyWlLk6GJQsqaUBKTNV-1">
          <mxGeometry x="843" y="342" width="40" height="30" as="geometry" />
        </mxCell>
        <mxCell id="JbuIx9JMpjGhko4kKoYl-70" value="" style="edgeStyle=orthogonalEdgeStyle;rounded=0;orthogonalLoop=1;jettySize=auto;html=1;" edge="1" parent="WIyWlLk6GJQsqaUBKTNV-1" source="JbuIx9JMpjGhko4kKoYl-67">
          <mxGeometry relative="1" as="geometry">
            <mxPoint x="1295.5" y="343" as="targetPoint" />
          </mxGeometry>
        </mxCell>
        <mxCell id="JbuIx9JMpjGhko4kKoYl-67" value="tela novo pedido" style="rounded=0;whiteSpace=wrap;html=1;" vertex="1" parent="WIyWlLk6GJQsqaUBKTNV-1">
          <mxGeometry x="1040" y="360" width="120" height="60" as="geometry" />
        </mxCell>
        <mxCell id="JbuIx9JMpjGhko4kKoYl-68" value="não" style="text;html=1;align=center;verticalAlign=middle;resizable=0;points=[];autosize=1;strokeColor=none;fillColor=none;" vertex="1" parent="WIyWlLk6GJQsqaUBKTNV-1">
          <mxGeometry x="970" y="343" width="40" height="30" as="geometry" />
        </mxCell>
        <mxCell id="JbuIx9JMpjGhko4kKoYl-76" style="edgeStyle=orthogonalEdgeStyle;rounded=0;orthogonalLoop=1;jettySize=auto;html=1;" edge="1" parent="WIyWlLk6GJQsqaUBKTNV-1" source="JbuIx9JMpjGhko4kKoYl-71">
          <mxGeometry relative="1" as="geometry">
            <mxPoint x="1180" y="480" as="targetPoint" />
          </mxGeometry>
        </mxCell>
        <mxCell id="JbuIx9JMpjGhko4kKoYl-71" value="informações:&amp;nbsp;&lt;div&gt;quantidade&lt;/div&gt;&lt;div&gt;valor&lt;/div&gt;&lt;div&gt;tempo estimado&lt;/div&gt;" style="rounded=0;whiteSpace=wrap;html=1;" vertex="1" parent="WIyWlLk6GJQsqaUBKTNV-1">
          <mxGeometry x="1233" y="260" width="120" height="81" as="geometry" />
        </mxCell>
        <mxCell id="JbuIx9JMpjGhko4kKoYl-78" style="edgeStyle=orthogonalEdgeStyle;rounded=0;orthogonalLoop=1;jettySize=auto;html=1;entryX=0;entryY=0.25;entryDx=0;entryDy=0;" edge="1" parent="WIyWlLk6GJQsqaUBKTNV-1" source="JbuIx9JMpjGhko4kKoYl-77" target="JbuIx9JMpjGhko4kKoYl-53">
          <mxGeometry relative="1" as="geometry">
            <Array as="points">
              <mxPoint x="1170" y="440" />
              <mxPoint x="760" y="440" />
              <mxPoint x="760" y="60" />
              <mxPoint x="1040" y="60" />
              <mxPoint x="1040" y="100" />
              <mxPoint x="1070" y="100" />
            </Array>
          </mxGeometry>
        </mxCell>
        <mxCell id="JbuIx9JMpjGhko4kKoYl-79" value="sim" style="edgeLabel;html=1;align=center;verticalAlign=middle;resizable=0;points=[];" vertex="1" connectable="0" parent="JbuIx9JMpjGhko4kKoYl-78">
          <mxGeometry x="-0.5255" y="-4" relative="1" as="geometry">
            <mxPoint as="offset" />
          </mxGeometry>
        </mxCell>
        <mxCell id="JbuIx9JMpjGhko4kKoYl-77" value="salvar" style="ellipse;whiteSpace=wrap;html=1;" vertex="1" parent="WIyWlLk6GJQsqaUBKTNV-1">
          <mxGeometry x="1121" y="480" width="120" height="70" as="geometry" />
        </mxCell>
        <mxCell id="JbuIx9JMpjGhko4kKoYl-84" value="" style="edgeStyle=orthogonalEdgeStyle;rounded=0;orthogonalLoop=1;jettySize=auto;html=1;" edge="1" parent="WIyWlLk6GJQsqaUBKTNV-1" source="JbuIx9JMpjGhko4kKoYl-81" target="JbuIx9JMpjGhko4kKoYl-83">
          <mxGeometry relative="1" as="geometry" />
        </mxCell>
        <mxCell id="JbuIx9JMpjGhko4kKoYl-81" value="cadastrar produto" style="rounded=0;whiteSpace=wrap;html=1;" vertex="1" parent="WIyWlLk6GJQsqaUBKTNV-1">
          <mxGeometry x="1280" y="100" width="120" height="50" as="geometry" />
        </mxCell>
        <mxCell id="JbuIx9JMpjGhko4kKoYl-85" style="edgeStyle=orthogonalEdgeStyle;rounded=0;orthogonalLoop=1;jettySize=auto;html=1;entryX=1;entryY=0.75;entryDx=0;entryDy=0;" edge="1" parent="WIyWlLk6GJQsqaUBKTNV-1" source="JbuIx9JMpjGhko4kKoYl-83" target="JbuIx9JMpjGhko4kKoYl-53">
          <mxGeometry relative="1" as="geometry" />
        </mxCell>
        <mxCell id="JbuIx9JMpjGhko4kKoYl-83" value="fez cadastro&amp;nbsp;&lt;div&gt;produto?&lt;/div&gt;" style="rhombus;whiteSpace=wrap;html=1;rounded=0;" vertex="1" parent="WIyWlLk6GJQsqaUBKTNV-1">
          <mxGeometry x="1430" y="180" width="100" height="90" as="geometry" />
        </mxCell>
        <mxCell id="JbuIx9JMpjGhko4kKoYl-86" value="sim" style="text;html=1;align=center;verticalAlign=middle;resizable=0;points=[];autosize=1;strokeColor=none;fillColor=none;" vertex="1" parent="WIyWlLk6GJQsqaUBKTNV-1">
          <mxGeometry x="1370" y="202" width="40" height="30" as="geometry" />
        </mxCell>
        <mxCell id="JbuIx9JMpjGhko4kKoYl-89" value="" style="endArrow=none;html=1;rounded=0;" edge="1" parent="WIyWlLk6GJQsqaUBKTNV-1">
          <mxGeometry width="50" height="50" relative="1" as="geometry">
            <mxPoint x="1531" y="226" as="sourcePoint" />
            <mxPoint x="1530" y="80" as="targetPoint" />
          </mxGeometry>
        </mxCell>
        <mxCell id="JbuIx9JMpjGhko4kKoYl-90" value="" style="endArrow=none;html=1;rounded=0;" edge="1" parent="WIyWlLk6GJQsqaUBKTNV-1">
          <mxGeometry width="50" height="50" relative="1" as="geometry">
            <mxPoint x="1350" y="80" as="sourcePoint" />
            <mxPoint x="1530" y="80" as="targetPoint" />
          </mxGeometry>
        </mxCell>
        <mxCell id="JbuIx9JMpjGhko4kKoYl-92" value="" style="endArrow=classic;html=1;rounded=0;" edge="1" parent="WIyWlLk6GJQsqaUBKTNV-1">
          <mxGeometry width="50" height="50" relative="1" as="geometry">
            <mxPoint x="1350" y="80" as="sourcePoint" />
            <mxPoint x="1350" y="100" as="targetPoint" />
          </mxGeometry>
        </mxCell>
        <mxCell id="JbuIx9JMpjGhko4kKoYl-94" style="edgeStyle=orthogonalEdgeStyle;rounded=0;orthogonalLoop=1;jettySize=auto;html=1;exitX=0.5;exitY=1;exitDx=0;exitDy=0;entryX=0.5;entryY=0;entryDx=0;entryDy=0;" edge="1" parent="WIyWlLk6GJQsqaUBKTNV-1" source="JbuIx9JMpjGhko4kKoYl-95" target="JbuIx9JMpjGhko4kKoYl-108">
          <mxGeometry relative="1" as="geometry" />
        </mxCell>
        <mxCell id="JbuIx9JMpjGhko4kKoYl-95" value="ínicio" style="ellipse;whiteSpace=wrap;html=1;" vertex="1" parent="WIyWlLk6GJQsqaUBKTNV-1">
          <mxGeometry x="1868" y="60" width="120" height="60" as="geometry" />
        </mxCell>
        <mxCell id="JbuIx9JMpjGhko4kKoYl-96" style="edgeStyle=orthogonalEdgeStyle;rounded=0;orthogonalLoop=1;jettySize=auto;html=1;entryX=0.5;entryY=0;entryDx=0;entryDy=0;" edge="1" parent="WIyWlLk6GJQsqaUBKTNV-1" source="JbuIx9JMpjGhko4kKoYl-98" target="JbuIx9JMpjGhko4kKoYl-101">
          <mxGeometry relative="1" as="geometry" />
        </mxCell>
        <mxCell id="JbuIx9JMpjGhko4kKoYl-97" value="" style="edgeStyle=orthogonalEdgeStyle;rounded=0;orthogonalLoop=1;jettySize=auto;html=1;" edge="1" parent="WIyWlLk6GJQsqaUBKTNV-1" source="JbuIx9JMpjGhko4kKoYl-98" target="JbuIx9JMpjGhko4kKoYl-118">
          <mxGeometry relative="1" as="geometry" />
        </mxCell>
        <mxCell id="JbuIx9JMpjGhko4kKoYl-98" value="fornecedor" style="rounded=0;whiteSpace=wrap;html=1;" vertex="1" parent="WIyWlLk6GJQsqaUBKTNV-1">
          <mxGeometry x="1868" y="220" width="120" height="50" as="geometry" />
        </mxCell>
        <mxCell id="JbuIx9JMpjGhko4kKoYl-99" style="edgeStyle=orthogonalEdgeStyle;rounded=0;orthogonalLoop=1;jettySize=auto;html=1;entryX=0.5;entryY=0;entryDx=0;entryDy=0;" edge="1" parent="WIyWlLk6GJQsqaUBKTNV-1" source="JbuIx9JMpjGhko4kKoYl-101" target="JbuIx9JMpjGhko4kKoYl-103">
          <mxGeometry relative="1" as="geometry">
            <mxPoint x="1774" y="340" as="targetPoint" />
          </mxGeometry>
        </mxCell>
        <mxCell id="JbuIx9JMpjGhko4kKoYl-100" style="edgeStyle=orthogonalEdgeStyle;rounded=0;orthogonalLoop=1;jettySize=auto;html=1;entryX=0;entryY=0.5;entryDx=0;entryDy=0;" edge="1" parent="WIyWlLk6GJQsqaUBKTNV-1" target="JbuIx9JMpjGhko4kKoYl-103">
          <mxGeometry relative="1" as="geometry">
            <mxPoint x="1868.5" y="320" as="sourcePoint" />
            <mxPoint x="1724.5" y="395" as="targetPoint" />
          </mxGeometry>
        </mxCell>
        <mxCell id="JbuIx9JMpjGhko4kKoYl-101" value="lista de fornecedores&amp;nbsp;" style="rounded=0;whiteSpace=wrap;html=1;" vertex="1" parent="WIyWlLk6GJQsqaUBKTNV-1">
          <mxGeometry x="1868" y="320" width="120" height="60" as="geometry" />
        </mxCell>
        <mxCell id="JbuIx9JMpjGhko4kKoYl-102" style="edgeStyle=orthogonalEdgeStyle;rounded=0;orthogonalLoop=1;jettySize=auto;html=1;entryX=0;entryY=0.5;entryDx=0;entryDy=0;" edge="1" parent="WIyWlLk6GJQsqaUBKTNV-1" source="JbuIx9JMpjGhko4kKoYl-103" target="JbuIx9JMpjGhko4kKoYl-106">
          <mxGeometry relative="1" as="geometry">
            <mxPoint x="1864" y="385" as="targetPoint" />
          </mxGeometry>
        </mxCell>
        <mxCell id="JbuIx9JMpjGhko4kKoYl-103" value="fornecedor fez cadastro?" style="rhombus;whiteSpace=wrap;html=1;" vertex="1" parent="WIyWlLk6GJQsqaUBKTNV-1">
          <mxGeometry x="1724" y="380" width="100" height="90" as="geometry" />
        </mxCell>
        <mxCell id="JbuIx9JMpjGhko4kKoYl-104" value="não" style="text;html=1;align=center;verticalAlign=middle;resizable=0;points=[];autosize=1;strokeColor=none;fillColor=none;" vertex="1" parent="WIyWlLk6GJQsqaUBKTNV-1">
          <mxGeometry x="1814" y="400" width="40" height="30" as="geometry" />
        </mxCell>
        <mxCell id="JbuIx9JMpjGhko4kKoYl-105" style="edgeStyle=orthogonalEdgeStyle;rounded=0;orthogonalLoop=1;jettySize=auto;html=1;exitX=0.5;exitY=1;exitDx=0;exitDy=0;" edge="1" parent="WIyWlLk6GJQsqaUBKTNV-1" source="JbuIx9JMpjGhko4kKoYl-106">
          <mxGeometry relative="1" as="geometry">
            <mxPoint x="1923" y="510" as="targetPoint" />
          </mxGeometry>
        </mxCell>
        <mxCell id="JbuIx9JMpjGhko4kKoYl-106" value="cadastrar fornecedor" style="rounded=0;whiteSpace=wrap;html=1;" vertex="1" parent="WIyWlLk6GJQsqaUBKTNV-1">
          <mxGeometry x="1868" y="420" width="110" height="50" as="geometry" />
        </mxCell>
        <mxCell id="JbuIx9JMpjGhko4kKoYl-107" style="edgeStyle=orthogonalEdgeStyle;rounded=0;orthogonalLoop=1;jettySize=auto;html=1;exitX=0.5;exitY=1;exitDx=0;exitDy=0;entryX=0.5;entryY=0;entryDx=0;entryDy=0;" edge="1" parent="WIyWlLk6GJQsqaUBKTNV-1" source="JbuIx9JMpjGhko4kKoYl-108" target="JbuIx9JMpjGhko4kKoYl-98">
          <mxGeometry relative="1" as="geometry" />
        </mxCell>
        <mxCell id="JbuIx9JMpjGhko4kKoYl-108" value="tela ínicial" style="rounded=0;whiteSpace=wrap;html=1;" vertex="1" parent="WIyWlLk6GJQsqaUBKTNV-1">
          <mxGeometry x="1868.5" y="140" width="119" height="50" as="geometry" />
        </mxCell>
        <mxCell id="JbuIx9JMpjGhko4kKoYl-109" value="sim" style="text;html=1;align=center;verticalAlign=middle;resizable=0;points=[];autosize=1;strokeColor=none;fillColor=none;" vertex="1" parent="WIyWlLk6GJQsqaUBKTNV-1">
          <mxGeometry x="1697" y="390" width="40" height="30" as="geometry" />
        </mxCell>
        <mxCell id="JbuIx9JMpjGhko4kKoYl-110" style="edgeStyle=orthogonalEdgeStyle;rounded=0;orthogonalLoop=1;jettySize=auto;html=1;" edge="1" parent="WIyWlLk6GJQsqaUBKTNV-1" source="JbuIx9JMpjGhko4kKoYl-112">
          <mxGeometry relative="1" as="geometry">
            <mxPoint x="2054" y="500" as="targetPoint" />
          </mxGeometry>
        </mxCell>
        <mxCell id="JbuIx9JMpjGhko4kKoYl-111" style="edgeStyle=orthogonalEdgeStyle;rounded=0;orthogonalLoop=1;jettySize=auto;html=1;" edge="1" parent="WIyWlLk6GJQsqaUBKTNV-1" source="JbuIx9JMpjGhko4kKoYl-112" target="JbuIx9JMpjGhko4kKoYl-123">
          <mxGeometry relative="1" as="geometry">
            <mxPoint x="1923" y="620" as="targetPoint" />
          </mxGeometry>
        </mxCell>
        <mxCell id="JbuIx9JMpjGhko4kKoYl-112" value="preencha formulário" style="rounded=0;whiteSpace=wrap;html=1;" vertex="1" parent="WIyWlLk6GJQsqaUBKTNV-1">
          <mxGeometry x="1863" y="510" width="120" height="50" as="geometry" />
        </mxCell>
        <mxCell id="JbuIx9JMpjGhko4kKoYl-113" style="edgeStyle=orthogonalEdgeStyle;rounded=0;orthogonalLoop=1;jettySize=auto;html=1;" edge="1" parent="WIyWlLk6GJQsqaUBKTNV-1" source="JbuIx9JMpjGhko4kKoYl-114">
          <mxGeometry relative="1" as="geometry">
            <mxPoint x="2164" y="370" as="targetPoint" />
          </mxGeometry>
        </mxCell>
        <mxCell id="JbuIx9JMpjGhko4kKoYl-114" value="&lt;div&gt;&lt;div&gt;&lt;div&gt;&lt;div&gt;&lt;br&gt;&lt;/div&gt;&lt;/div&gt;&lt;/div&gt;&lt;/div&gt;" style="rounded=0;whiteSpace=wrap;html=1;" vertex="1" parent="WIyWlLk6GJQsqaUBKTNV-1">
          <mxGeometry x="2004" y="430" width="110" height="70" as="geometry" />
        </mxCell>
        <mxCell id="JbuIx9JMpjGhko4kKoYl-115" value="informações:&lt;div&gt;nome&lt;/div&gt;&lt;div&gt;cpf&amp;nbsp;&amp;nbsp;&lt;/div&gt;&lt;div&gt;telefone&amp;nbsp;&lt;/div&gt;&lt;div&gt;endereço...&lt;/div&gt;&lt;div&gt;&lt;br&gt;&lt;/div&gt;&lt;div&gt;&lt;div&gt;&lt;br&gt;&lt;/div&gt;&lt;div&gt;&lt;br&gt;&lt;/div&gt;&lt;div&gt;&lt;br style=&quot;text-wrap: wrap;&quot;&gt;&lt;/div&gt;&lt;/div&gt;" style="text;html=1;align=center;verticalAlign=middle;resizable=0;points=[];autosize=1;strokeColor=none;fillColor=none;" vertex="1" parent="WIyWlLk6GJQsqaUBKTNV-1">
          <mxGeometry x="2014" y="424" width="90" height="140" as="geometry" />
        </mxCell>
        <mxCell id="JbuIx9JMpjGhko4kKoYl-116" style="edgeStyle=orthogonalEdgeStyle;rounded=0;orthogonalLoop=1;jettySize=auto;html=1;entryX=0.909;entryY=1.04;entryDx=0;entryDy=0;entryPerimeter=0;" edge="1" parent="WIyWlLk6GJQsqaUBKTNV-1" source="JbuIx9JMpjGhko4kKoYl-118" target="JbuIx9JMpjGhko4kKoYl-108">
          <mxGeometry relative="1" as="geometry">
            <Array as="points">
              <mxPoint x="2043" y="314" />
              <mxPoint x="2043" y="160" />
              <mxPoint x="1988" y="160" />
              <mxPoint x="1988" y="190" />
              <mxPoint x="1977" y="190" />
            </Array>
          </mxGeometry>
        </mxCell>
        <mxCell id="JbuIx9JMpjGhko4kKoYl-117" style="edgeStyle=orthogonalEdgeStyle;rounded=0;orthogonalLoop=1;jettySize=auto;html=1;" edge="1" parent="WIyWlLk6GJQsqaUBKTNV-1" source="JbuIx9JMpjGhko4kKoYl-118">
          <mxGeometry relative="1" as="geometry">
            <mxPoint x="1904" y="420" as="targetPoint" />
            <Array as="points">
              <mxPoint x="2134" y="400" />
              <mxPoint x="1905" y="400" />
            </Array>
          </mxGeometry>
        </mxCell>
        <mxCell id="JbuIx9JMpjGhko4kKoYl-118" value="todas as informações&lt;div&gt;foram preenchidas?&lt;/div&gt;" style="rhombus;whiteSpace=wrap;html=1;" vertex="1" parent="WIyWlLk6GJQsqaUBKTNV-1">
          <mxGeometry x="2098" y="260" width="136" height="108" as="geometry" />
        </mxCell>
        <mxCell id="JbuIx9JMpjGhko4kKoYl-119" value="sim" style="text;html=1;align=center;verticalAlign=middle;resizable=0;points=[];autosize=1;strokeColor=none;fillColor=none;" vertex="1" parent="WIyWlLk6GJQsqaUBKTNV-1">
          <mxGeometry x="2058" y="289" width="40" height="30" as="geometry" />
        </mxCell>
        <mxCell id="JbuIx9JMpjGhko4kKoYl-120" value="não" style="text;html=1;align=center;verticalAlign=middle;resizable=0;points=[];autosize=1;strokeColor=none;fillColor=none;" vertex="1" parent="WIyWlLk6GJQsqaUBKTNV-1">
          <mxGeometry x="2064" y="378" width="40" height="30" as="geometry" />
        </mxCell>
        <mxCell id="JbuIx9JMpjGhko4kKoYl-121" style="edgeStyle=orthogonalEdgeStyle;rounded=0;orthogonalLoop=1;jettySize=auto;html=1;" edge="1" parent="WIyWlLk6GJQsqaUBKTNV-1" source="JbuIx9JMpjGhko4kKoYl-123">
          <mxGeometry relative="1" as="geometry">
            <mxPoint x="1868" y="190" as="targetPoint" />
            <Array as="points">
              <mxPoint x="1824" y="635" />
              <mxPoint x="1824" y="510" />
              <mxPoint x="1654" y="510" />
              <mxPoint x="1654" y="180" />
              <mxPoint x="1868" y="180" />
            </Array>
          </mxGeometry>
        </mxCell>
        <mxCell id="JbuIx9JMpjGhko4kKoYl-122" style="edgeStyle=orthogonalEdgeStyle;rounded=0;orthogonalLoop=1;jettySize=auto;html=1;" edge="1" parent="WIyWlLk6GJQsqaUBKTNV-1" source="JbuIx9JMpjGhko4kKoYl-123">
          <mxGeometry relative="1" as="geometry">
            <mxPoint x="1984" y="560" as="targetPoint" />
          </mxGeometry>
        </mxCell>
        <mxCell id="JbuIx9JMpjGhko4kKoYl-123" value="salvar cadastro" style="ellipse;whiteSpace=wrap;html=1;" vertex="1" parent="WIyWlLk6GJQsqaUBKTNV-1">
          <mxGeometry x="1863" y="600" width="120" height="70" as="geometry" />
        </mxCell>
        <mxCell id="JbuIx9JMpjGhko4kKoYl-124" value="sim" style="text;html=1;align=center;verticalAlign=middle;resizable=0;points=[];autosize=1;strokeColor=none;fillColor=none;" vertex="1" parent="WIyWlLk6GJQsqaUBKTNV-1">
          <mxGeometry x="1724" y="487" width="40" height="30" as="geometry" />
        </mxCell>
        <mxCell id="JbuIx9JMpjGhko4kKoYl-125" value="não" style="text;html=1;align=center;verticalAlign=middle;resizable=0;points=[];autosize=1;strokeColor=none;fillColor=none;" vertex="1" parent="WIyWlLk6GJQsqaUBKTNV-1">
          <mxGeometry x="1984" y="598" width="40" height="30" as="geometry" />
        </mxCell>
        <mxCell id="JbuIx9JMpjGhko4kKoYl-128" value="" style="edgeStyle=orthogonalEdgeStyle;rounded=0;orthogonalLoop=1;jettySize=auto;html=1;" edge="1" parent="WIyWlLk6GJQsqaUBKTNV-1" source="JbuIx9JMpjGhko4kKoYl-126" target="JbuIx9JMpjGhko4kKoYl-127">
          <mxGeometry relative="1" as="geometry" />
        </mxCell>
        <mxCell id="JbuIx9JMpjGhko4kKoYl-126" value="ínicio" style="ellipse;whiteSpace=wrap;html=1;" vertex="1" parent="WIyWlLk6GJQsqaUBKTNV-1">
          <mxGeometry x="2530" y="10" width="120" height="70" as="geometry" />
        </mxCell>
        <mxCell id="JbuIx9JMpjGhko4kKoYl-130" value="" style="edgeStyle=orthogonalEdgeStyle;rounded=0;orthogonalLoop=1;jettySize=auto;html=1;" edge="1" parent="WIyWlLk6GJQsqaUBKTNV-1" source="JbuIx9JMpjGhko4kKoYl-127" target="JbuIx9JMpjGhko4kKoYl-129">
          <mxGeometry relative="1" as="geometry">
            <Array as="points">
              <mxPoint x="2690" y="110" />
              <mxPoint x="2690" y="110" />
            </Array>
          </mxGeometry>
        </mxCell>
        <mxCell id="JbuIx9JMpjGhko4kKoYl-137" value="" style="edgeStyle=orthogonalEdgeStyle;rounded=0;orthogonalLoop=1;jettySize=auto;html=1;" edge="1" parent="WIyWlLk6GJQsqaUBKTNV-1" source="JbuIx9JMpjGhko4kKoYl-127" target="JbuIx9JMpjGhko4kKoYl-136">
          <mxGeometry relative="1" as="geometry" />
        </mxCell>
        <mxCell id="JbuIx9JMpjGhko4kKoYl-140" style="edgeStyle=orthogonalEdgeStyle;rounded=0;orthogonalLoop=1;jettySize=auto;html=1;exitX=0;exitY=0.5;exitDx=0;exitDy=0;entryX=1;entryY=0.5;entryDx=0;entryDy=0;" edge="1" parent="WIyWlLk6GJQsqaUBKTNV-1" source="JbuIx9JMpjGhko4kKoYl-127" target="JbuIx9JMpjGhko4kKoYl-139">
          <mxGeometry relative="1" as="geometry" />
        </mxCell>
        <mxCell id="JbuIx9JMpjGhko4kKoYl-127" value="tela ínicio" style="whiteSpace=wrap;html=1;" vertex="1" parent="WIyWlLk6GJQsqaUBKTNV-1">
          <mxGeometry x="2530" y="110" width="120" height="60" as="geometry" />
        </mxCell>
        <mxCell id="JbuIx9JMpjGhko4kKoYl-129" value="pesquisar&amp;nbsp;&lt;div&gt;produtos?&lt;/div&gt;" style="rhombus;whiteSpace=wrap;html=1;" vertex="1" parent="WIyWlLk6GJQsqaUBKTNV-1">
          <mxGeometry x="2750" y="90" width="110" height="100" as="geometry" />
        </mxCell>
        <mxCell id="JbuIx9JMpjGhko4kKoYl-133" value="" style="endArrow=none;html=1;rounded=0;" edge="1" parent="WIyWlLk6GJQsqaUBKTNV-1">
          <mxGeometry width="50" height="50" relative="1" as="geometry">
            <mxPoint x="2650" y="190" as="sourcePoint" />
            <mxPoint x="2805" y="190" as="targetPoint" />
          </mxGeometry>
        </mxCell>
        <mxCell id="JbuIx9JMpjGhko4kKoYl-135" value="" style="endArrow=classic;html=1;rounded=0;entryX=1;entryY=1;entryDx=0;entryDy=0;" edge="1" parent="WIyWlLk6GJQsqaUBKTNV-1" target="JbuIx9JMpjGhko4kKoYl-127">
          <mxGeometry width="50" height="50" relative="1" as="geometry">
            <mxPoint x="2650" y="190" as="sourcePoint" />
            <mxPoint x="2700" y="140" as="targetPoint" />
          </mxGeometry>
        </mxCell>
        <mxCell id="JbuIx9JMpjGhko4kKoYl-143" value="" style="edgeStyle=orthogonalEdgeStyle;rounded=0;orthogonalLoop=1;jettySize=auto;html=1;" edge="1" parent="WIyWlLk6GJQsqaUBKTNV-1" source="JbuIx9JMpjGhko4kKoYl-136">
          <mxGeometry relative="1" as="geometry">
            <mxPoint x="2730" y="280" as="targetPoint" />
          </mxGeometry>
        </mxCell>
        <mxCell id="JbuIx9JMpjGhko4kKoYl-136" value="&lt;div&gt;linha&lt;/div&gt;&lt;div&gt;algodão&lt;/div&gt;&lt;div&gt;poliéster&lt;/div&gt;&lt;div&gt;linho&lt;/div&gt;" style="whiteSpace=wrap;html=1;" vertex="1" parent="WIyWlLk6GJQsqaUBKTNV-1">
          <mxGeometry x="2530" y="250" width="120" height="60" as="geometry" />
        </mxCell>
        <mxCell id="JbuIx9JMpjGhko4kKoYl-141" style="edgeStyle=orthogonalEdgeStyle;rounded=0;orthogonalLoop=1;jettySize=auto;html=1;entryX=0;entryY=0.75;entryDx=0;entryDy=0;" edge="1" parent="WIyWlLk6GJQsqaUBKTNV-1" source="JbuIx9JMpjGhko4kKoYl-139" target="JbuIx9JMpjGhko4kKoYl-136">
          <mxGeometry relative="1" as="geometry">
            <mxPoint x="2480" y="320" as="targetPoint" />
            <Array as="points">
              <mxPoint x="2430" y="245" />
              <mxPoint x="2481" y="245" />
              <mxPoint x="2481" y="295" />
            </Array>
          </mxGeometry>
        </mxCell>
        <mxCell id="JbuIx9JMpjGhko4kKoYl-139" value="nome da matéria&amp;nbsp;&lt;div&gt;prima&lt;/div&gt;" style="rounded=0;whiteSpace=wrap;html=1;" vertex="1" parent="WIyWlLk6GJQsqaUBKTNV-1">
          <mxGeometry x="2370" y="110" width="120" height="60" as="geometry" />
        </mxCell>
        <mxCell id="JbuIx9JMpjGhko4kKoYl-152" value="" style="edgeStyle=orthogonalEdgeStyle;rounded=0;orthogonalLoop=1;jettySize=auto;html=1;" edge="1" parent="WIyWlLk6GJQsqaUBKTNV-1" source="JbuIx9JMpjGhko4kKoYl-144" target="JbuIx9JMpjGhko4kKoYl-151">
          <mxGeometry relative="1" as="geometry" />
        </mxCell>
        <mxCell id="JbuIx9JMpjGhko4kKoYl-153" value="não" style="edgeLabel;html=1;align=center;verticalAlign=middle;resizable=0;points=[];" vertex="1" connectable="0" parent="JbuIx9JMpjGhko4kKoYl-152">
          <mxGeometry x="0.1704" y="2" relative="1" as="geometry">
            <mxPoint as="offset" />
          </mxGeometry>
        </mxCell>
        <mxCell id="JbuIx9JMpjGhko4kKoYl-144" value="cadastrar&lt;div&gt;produto?&lt;/div&gt;" style="rhombus;whiteSpace=wrap;html=1;" vertex="1" parent="WIyWlLk6GJQsqaUBKTNV-1">
          <mxGeometry x="2731" y="230" width="110" height="100" as="geometry" />
        </mxCell>
        <mxCell id="JbuIx9JMpjGhko4kKoYl-147" value="" style="endArrow=none;html=1;rounded=0;" edge="1" parent="WIyWlLk6GJQsqaUBKTNV-1">
          <mxGeometry width="50" height="50" relative="1" as="geometry">
            <mxPoint x="2784" y="232" as="sourcePoint" />
            <mxPoint x="2640" y="230" as="targetPoint" />
          </mxGeometry>
        </mxCell>
        <mxCell id="JbuIx9JMpjGhko4kKoYl-148" value="" style="endArrow=classic;html=1;rounded=0;entryX=0.916;entryY=1.049;entryDx=0;entryDy=0;entryPerimeter=0;" edge="1" parent="WIyWlLk6GJQsqaUBKTNV-1" target="JbuIx9JMpjGhko4kKoYl-127">
          <mxGeometry width="50" height="50" relative="1" as="geometry">
            <mxPoint x="2640" y="230" as="sourcePoint" />
            <mxPoint x="2640" y="180" as="targetPoint" />
          </mxGeometry>
        </mxCell>
        <mxCell id="JbuIx9JMpjGhko4kKoYl-149" value="sim" style="text;html=1;align=center;verticalAlign=middle;resizable=0;points=[];autosize=1;strokeColor=none;fillColor=none;" vertex="1" parent="WIyWlLk6GJQsqaUBKTNV-1">
          <mxGeometry x="2710" y="210" width="40" height="30" as="geometry" />
        </mxCell>
        <mxCell id="JbuIx9JMpjGhko4kKoYl-151" value="preencher&amp;nbsp;&lt;div&gt;unidade e valor&lt;/div&gt;" style="whiteSpace=wrap;html=1;" vertex="1" parent="WIyWlLk6GJQsqaUBKTNV-1">
          <mxGeometry x="2841" y="380" width="120" height="60" as="geometry" />
        </mxCell>
        <mxCell id="JbuIx9JMpjGhko4kKoYl-156" value="" style="edgeStyle=orthogonalEdgeStyle;rounded=0;orthogonalLoop=1;jettySize=auto;html=1;" edge="1" parent="WIyWlLk6GJQsqaUBKTNV-1" source="JbuIx9JMpjGhko4kKoYl-154" target="JbuIx9JMpjGhko4kKoYl-155">
          <mxGeometry relative="1" as="geometry" />
        </mxCell>
        <mxCell id="JbuIx9JMpjGhko4kKoYl-154" value="ínicio" style="ellipse;whiteSpace=wrap;html=1;" vertex="1" parent="WIyWlLk6GJQsqaUBKTNV-1">
          <mxGeometry x="3620" y="44" width="120" height="60" as="geometry" />
        </mxCell>
        <mxCell id="JbuIx9JMpjGhko4kKoYl-158" value="" style="edgeStyle=orthogonalEdgeStyle;rounded=0;orthogonalLoop=1;jettySize=auto;html=1;" edge="1" parent="WIyWlLk6GJQsqaUBKTNV-1" source="JbuIx9JMpjGhko4kKoYl-155" target="JbuIx9JMpjGhko4kKoYl-157">
          <mxGeometry relative="1" as="geometry" />
        </mxCell>
        <mxCell id="JbuIx9JMpjGhko4kKoYl-155" value="tela ínicial" style="whiteSpace=wrap;html=1;" vertex="1" parent="WIyWlLk6GJQsqaUBKTNV-1">
          <mxGeometry x="3620" y="134" width="120" height="60" as="geometry" />
        </mxCell>
        <mxCell id="JbuIx9JMpjGhko4kKoYl-160" value="" style="edgeStyle=orthogonalEdgeStyle;rounded=0;orthogonalLoop=1;jettySize=auto;html=1;" edge="1" parent="WIyWlLk6GJQsqaUBKTNV-1" source="JbuIx9JMpjGhko4kKoYl-157" target="JbuIx9JMpjGhko4kKoYl-159">
          <mxGeometry relative="1" as="geometry" />
        </mxCell>
        <mxCell id="JbuIx9JMpjGhko4kKoYl-168" value="" style="edgeStyle=orthogonalEdgeStyle;rounded=0;orthogonalLoop=1;jettySize=auto;html=1;" edge="1" parent="WIyWlLk6GJQsqaUBKTNV-1" source="JbuIx9JMpjGhko4kKoYl-157" target="JbuIx9JMpjGhko4kKoYl-167">
          <mxGeometry relative="1" as="geometry" />
        </mxCell>
        <mxCell id="JbuIx9JMpjGhko4kKoYl-174" style="edgeStyle=orthogonalEdgeStyle;rounded=0;orthogonalLoop=1;jettySize=auto;html=1;" edge="1" parent="WIyWlLk6GJQsqaUBKTNV-1" source="JbuIx9JMpjGhko4kKoYl-157" target="JbuIx9JMpjGhko4kKoYl-163">
          <mxGeometry relative="1" as="geometry" />
        </mxCell>
        <mxCell id="JbuIx9JMpjGhko4kKoYl-189" style="edgeStyle=orthogonalEdgeStyle;rounded=0;orthogonalLoop=1;jettySize=auto;html=1;" edge="1" parent="WIyWlLk6GJQsqaUBKTNV-1" source="JbuIx9JMpjGhko4kKoYl-157">
          <mxGeometry relative="1" as="geometry">
            <mxPoint x="3590" y="610" as="targetPoint" />
          </mxGeometry>
        </mxCell>
        <mxCell id="JbuIx9JMpjGhko4kKoYl-157" value="forma de pagamento" style="whiteSpace=wrap;html=1;" vertex="1" parent="WIyWlLk6GJQsqaUBKTNV-1">
          <mxGeometry x="3620" y="229" width="120" height="60" as="geometry" />
        </mxCell>
        <mxCell id="JbuIx9JMpjGhko4kKoYl-162" value="" style="edgeStyle=orthogonalEdgeStyle;rounded=0;orthogonalLoop=1;jettySize=auto;html=1;" edge="1" parent="WIyWlLk6GJQsqaUBKTNV-1" source="JbuIx9JMpjGhko4kKoYl-159" target="JbuIx9JMpjGhko4kKoYl-161">
          <mxGeometry relative="1" as="geometry" />
        </mxCell>
        <mxCell id="JbuIx9JMpjGhko4kKoYl-159" value="escolher forma de pagamento" style="whiteSpace=wrap;html=1;" vertex="1" parent="WIyWlLk6GJQsqaUBKTNV-1">
          <mxGeometry x="3620" y="344" width="120" height="60" as="geometry" />
        </mxCell>
        <mxCell id="JbuIx9JMpjGhko4kKoYl-164" value="" style="edgeStyle=orthogonalEdgeStyle;rounded=0;orthogonalLoop=1;jettySize=auto;html=1;" edge="1" parent="WIyWlLk6GJQsqaUBKTNV-1" source="JbuIx9JMpjGhko4kKoYl-161" target="JbuIx9JMpjGhko4kKoYl-163">
          <mxGeometry relative="1" as="geometry" />
        </mxCell>
        <mxCell id="JbuIx9JMpjGhko4kKoYl-161" value="cartão&lt;div&gt;dinheiro&amp;nbsp;&lt;/div&gt;&lt;div&gt;pix&lt;/div&gt;" style="whiteSpace=wrap;html=1;" vertex="1" parent="WIyWlLk6GJQsqaUBKTNV-1">
          <mxGeometry x="3820" y="344" width="120" height="60" as="geometry" />
        </mxCell>
        <mxCell id="JbuIx9JMpjGhko4kKoYl-170" style="edgeStyle=orthogonalEdgeStyle;rounded=0;orthogonalLoop=1;jettySize=auto;html=1;entryX=0.5;entryY=1;entryDx=0;entryDy=0;" edge="1" parent="WIyWlLk6GJQsqaUBKTNV-1" source="JbuIx9JMpjGhko4kKoYl-163" target="JbuIx9JMpjGhko4kKoYl-167">
          <mxGeometry relative="1" as="geometry" />
        </mxCell>
        <mxCell id="JbuIx9JMpjGhko4kKoYl-171" value="sim" style="edgeLabel;html=1;align=center;verticalAlign=middle;resizable=0;points=[];" vertex="1" connectable="0" parent="JbuIx9JMpjGhko4kKoYl-170">
          <mxGeometry x="-0.3981" y="-7" relative="1" as="geometry">
            <mxPoint as="offset" />
          </mxGeometry>
        </mxCell>
        <mxCell id="JbuIx9JMpjGhko4kKoYl-172" style="edgeStyle=orthogonalEdgeStyle;rounded=0;orthogonalLoop=1;jettySize=auto;html=1;entryX=1;entryY=0.75;entryDx=0;entryDy=0;" edge="1" parent="WIyWlLk6GJQsqaUBKTNV-1" source="JbuIx9JMpjGhko4kKoYl-163" target="JbuIx9JMpjGhko4kKoYl-155">
          <mxGeometry relative="1" as="geometry">
            <Array as="points">
              <mxPoint x="4030" y="536" />
              <mxPoint x="4030" y="179" />
            </Array>
          </mxGeometry>
        </mxCell>
        <mxCell id="JbuIx9JMpjGhko4kKoYl-163" value="inserir cartão?" style="rhombus;whiteSpace=wrap;html=1;" vertex="1" parent="WIyWlLk6GJQsqaUBKTNV-1">
          <mxGeometry x="3890" y="488" width="120" height="96" as="geometry" />
        </mxCell>
        <mxCell id="JbuIx9JMpjGhko4kKoYl-167" value="pagamento realizado" style="whiteSpace=wrap;html=1;" vertex="1" parent="WIyWlLk6GJQsqaUBKTNV-1">
          <mxGeometry x="3420" y="229" width="120" height="60" as="geometry" />
        </mxCell>
        <mxCell id="JbuIx9JMpjGhko4kKoYl-173" value="não" style="text;html=1;align=center;verticalAlign=middle;resizable=0;points=[];autosize=1;strokeColor=none;fillColor=none;" vertex="1" parent="WIyWlLk6GJQsqaUBKTNV-1">
          <mxGeometry x="4010" y="372" width="40" height="30" as="geometry" />
        </mxCell>
        <mxCell id="JbuIx9JMpjGhko4kKoYl-178" value="" style="edgeStyle=orthogonalEdgeStyle;rounded=0;orthogonalLoop=1;jettySize=auto;html=1;" edge="1" parent="WIyWlLk6GJQsqaUBKTNV-1" source="JbuIx9JMpjGhko4kKoYl-176" target="JbuIx9JMpjGhko4kKoYl-177">
          <mxGeometry relative="1" as="geometry" />
        </mxCell>
        <mxCell id="JbuIx9JMpjGhko4kKoYl-176" value="dinheiro" style="rounded=0;whiteSpace=wrap;html=1;" vertex="1" parent="WIyWlLk6GJQsqaUBKTNV-1">
          <mxGeometry x="3740" y="572" width="120" height="60" as="geometry" />
        </mxCell>
        <mxCell id="JbuIx9JMpjGhko4kKoYl-181" style="edgeStyle=orthogonalEdgeStyle;rounded=0;orthogonalLoop=1;jettySize=auto;html=1;entryX=0;entryY=0.5;entryDx=0;entryDy=0;" edge="1" parent="WIyWlLk6GJQsqaUBKTNV-1" source="JbuIx9JMpjGhko4kKoYl-177" target="JbuIx9JMpjGhko4kKoYl-167">
          <mxGeometry relative="1" as="geometry" />
        </mxCell>
        <mxCell id="JbuIx9JMpjGhko4kKoYl-182" value="não" style="edgeLabel;html=1;align=center;verticalAlign=middle;resizable=0;points=[];" vertex="1" connectable="0" parent="JbuIx9JMpjGhko4kKoYl-181">
          <mxGeometry x="-0.6011" y="3" relative="1" as="geometry">
            <mxPoint as="offset" />
          </mxGeometry>
        </mxCell>
        <mxCell id="JbuIx9JMpjGhko4kKoYl-177" value="precisa de&amp;nbsp;&lt;div&gt;troco?&lt;/div&gt;" style="rhombus;whiteSpace=wrap;html=1;rounded=0;" vertex="1" parent="WIyWlLk6GJQsqaUBKTNV-1">
          <mxGeometry x="3760" y="704" width="120" height="102" as="geometry" />
        </mxCell>
        <mxCell id="JbuIx9JMpjGhko4kKoYl-183" value="" style="endArrow=none;html=1;rounded=0;" edge="1" parent="WIyWlLk6GJQsqaUBKTNV-1">
          <mxGeometry width="50" height="50" relative="1" as="geometry">
            <mxPoint x="3620" y="229" as="sourcePoint" />
            <mxPoint x="3570" y="229" as="targetPoint" />
          </mxGeometry>
        </mxCell>
        <mxCell id="JbuIx9JMpjGhko4kKoYl-184" value="" style="endArrow=none;html=1;rounded=0;" edge="1" parent="WIyWlLk6GJQsqaUBKTNV-1">
          <mxGeometry width="50" height="50" relative="1" as="geometry">
            <mxPoint x="3570" y="229" as="sourcePoint" />
            <mxPoint x="3570" y="154" as="targetPoint" />
          </mxGeometry>
        </mxCell>
        <mxCell id="JbuIx9JMpjGhko4kKoYl-185" value="" style="endArrow=classic;html=1;rounded=0;" edge="1" parent="WIyWlLk6GJQsqaUBKTNV-1">
          <mxGeometry width="50" height="50" relative="1" as="geometry">
            <mxPoint x="3570" y="154" as="sourcePoint" />
            <mxPoint x="3480" y="154" as="targetPoint" />
          </mxGeometry>
        </mxCell>
        <mxCell id="JbuIx9JMpjGhko4kKoYl-186" value="recorrer ao caixa" style="rounded=0;whiteSpace=wrap;html=1;" vertex="1" parent="WIyWlLk6GJQsqaUBKTNV-1">
          <mxGeometry x="3360" y="124" width="120" height="60" as="geometry" />
        </mxCell>
        <mxCell id="JbuIx9JMpjGhko4kKoYl-187" style="edgeStyle=orthogonalEdgeStyle;rounded=0;orthogonalLoop=1;jettySize=auto;html=1;entryX=0.09;entryY=1.003;entryDx=0;entryDy=0;entryPerimeter=0;" edge="1" parent="WIyWlLk6GJQsqaUBKTNV-1" source="JbuIx9JMpjGhko4kKoYl-177" target="JbuIx9JMpjGhko4kKoYl-186">
          <mxGeometry relative="1" as="geometry">
            <Array as="points">
              <mxPoint x="3350" y="784" />
              <mxPoint x="3350" y="184" />
            </Array>
          </mxGeometry>
        </mxCell>
        <mxCell id="JbuIx9JMpjGhko4kKoYl-188" value="sim" style="edgeLabel;html=1;align=center;verticalAlign=middle;resizable=0;points=[];" vertex="1" connectable="0" parent="JbuIx9JMpjGhko4kKoYl-187">
          <mxGeometry x="-0.48" y="-3" relative="1" as="geometry">
            <mxPoint as="offset" />
          </mxGeometry>
        </mxCell>
        <mxCell id="JbuIx9JMpjGhko4kKoYl-192" style="edgeStyle=orthogonalEdgeStyle;rounded=0;orthogonalLoop=1;jettySize=auto;html=1;" edge="1" parent="WIyWlLk6GJQsqaUBKTNV-1" source="JbuIx9JMpjGhko4kKoYl-191" target="JbuIx9JMpjGhko4kKoYl-193">
          <mxGeometry relative="1" as="geometry">
            <mxPoint x="3260" y="590" as="targetPoint" />
          </mxGeometry>
        </mxCell>
        <mxCell id="JbuIx9JMpjGhko4kKoYl-191" value="pix" style="rounded=0;whiteSpace=wrap;html=1;" vertex="1" parent="WIyWlLk6GJQsqaUBKTNV-1">
          <mxGeometry x="3530" y="610" width="120" height="60" as="geometry" />
        </mxCell>
        <mxCell id="JbuIx9JMpjGhko4kKoYl-196" value="" style="edgeStyle=orthogonalEdgeStyle;rounded=0;orthogonalLoop=1;jettySize=auto;html=1;" edge="1" parent="WIyWlLk6GJQsqaUBKTNV-1" source="JbuIx9JMpjGhko4kKoYl-193">
          <mxGeometry relative="1" as="geometry">
            <mxPoint x="3180" y="400" as="targetPoint" />
            <Array as="points">
              <mxPoint x="3170" y="542" />
              <mxPoint x="3170" y="450" />
              <mxPoint x="3181" y="450" />
            </Array>
          </mxGeometry>
        </mxCell>
        <mxCell id="JbuIx9JMpjGhko4kKoYl-193" value="inserir&amp;nbsp;&lt;div&gt;informações&lt;/div&gt;" style="rhombus;whiteSpace=wrap;html=1;" vertex="1" parent="WIyWlLk6GJQsqaUBKTNV-1">
          <mxGeometry x="3190" y="500" width="110" height="84" as="geometry" />
        </mxCell>
        <mxCell id="JbuIx9JMpjGhko4kKoYl-197" style="edgeStyle=orthogonalEdgeStyle;rounded=0;orthogonalLoop=1;jettySize=auto;html=1;" edge="1" parent="WIyWlLk6GJQsqaUBKTNV-1">
          <mxGeometry relative="1" as="geometry">
            <mxPoint x="3450" y="290" as="targetPoint" />
            <mxPoint x="3240" y="368" as="sourcePoint" />
          </mxGeometry>
        </mxCell>
        <mxCell id="JbuIx9JMpjGhko4kKoYl-198" value="" style="ellipse;whiteSpace=wrap;html=1;" vertex="1" parent="WIyWlLk6GJQsqaUBKTNV-1">
          <mxGeometry x="3120" y="319" width="120" height="80" as="geometry" />
        </mxCell>
        <mxCell id="JbuIx9JMpjGhko4kKoYl-199" value="&lt;div style=&quot;text-align: center;&quot;&gt;&lt;span style=&quot;background-color: initial;&quot;&gt;nome&amp;nbsp;&lt;/span&gt;&lt;/div&gt;&lt;div style=&quot;text-align: center;&quot;&gt;&lt;span style=&quot;background-color: initial;&quot;&gt;telefone&lt;/span&gt;&lt;/div&gt;&lt;div style=&quot;text-align: center;&quot;&gt;&lt;span style=&quot;background-color: initial;&quot;&gt;valor&amp;nbsp;&lt;/span&gt;&lt;/div&gt;&lt;div style=&quot;text-align: center;&quot;&gt;&lt;span style=&quot;background-color: initial;&quot;&gt;data&lt;/span&gt;&lt;/div&gt;" style="text;whiteSpace=wrap;html=1;" vertex="1" parent="WIyWlLk6GJQsqaUBKTNV-1">
          <mxGeometry x="3160" y="322" width="80" height="80" as="geometry" />
        </mxCell>
      </root>
    </mxGraphModel>
  </diagram>
</mxfile>
